MESH "Kratos_Triangle2D3_Mesh_0" dimension 2 ElemType Triangle Nnode 3
Coordinates
1 100 -20 0
2 100 -10 0
3 0 -10 0
4 0 -20 0
5 100 0 0
6 80 0 0
7 20 0 0
8 0 0 0
9 77.3 1.2 0
10 75.2 1.5 0
11 73.2 2 0
12 70.8 2.3 0
13 68.2 2.6 0
14 65.7 3.3 0
15 63.3 3.6 0
16 60.8 3.8 0
17 57.6 4.3 0
18 55 5.8 0
19 52.2 7 0
20 50.4 8.3 0
21 47 10 0
22 42.3 10 0
23 38.6 8.5 0
24 35 6.8 0
25 31.9 5.7 0
26 27 3.5 0
27 23.2 1.9 0
28 78.5 1 0
29 100 -14.305 0
30 96 -10 0
31 92 -10 0
32 88 -10 0
33 84 -10 0
34 80 -10 0
35 76 -10 0
36 72 -10 0
37 68 -10 0
38 64 -10 0
39 60 -10 0
40 56 -10 0
41 52 -10 0
42 48 -10 0
43 44 -10 0
44 40 -10 0
45 36 -10 0
46 32 -10 0
47 28 -10 0
48 24 -10 0
49 20 -10 0
50 16 -10 0
51 12 -10 0
52 8 -10 0
53 4 -10 0
54 0 -14.305 0
55 6.66667 -20 0
56 13.3333 -20 0
57 20 -20 0
58 26.6667 -20 0
59 33.3333 -20 0
60 40 -20 0
61 46.6667 -20 0
62 53.3333 -20 0
63 60 -20 0
64 66.6667 -20 0
65 73.3333 -20 0
66 80 -20 0
67 86.6667 -20 0
68 93.3333 -20 0
93 100 -6.66667 0
94 100 -3.33333 0
95 96.548 0 0
96 93.5429 0 0
97 90.9268 0 0
98 88.6493 0 0
99 86.6667 0 0
100 84.9407 0 0
101 83.4381 0 0
102 82.1301 0 0
103 80.9913 0 0
104 79 0 0
105 78 0 0
106 77 0 0
107 76 0 0
108 75 0 0
109 74 0 0
110 73 0 0
111 72 0 0
112 71 0 0
113 70 0 0
114 69 0 0
115 68 0 0
116 67 0 0
117 66 0 0
118 65 0 0
119 64 0 0
120 63 0 0
121 62 0 0
122 61 0 0
123 60 0 0
124 59 0 0
125 58 0 0
126 57 0 0
127 56 0 0
128 55 0 0
129 54 0 0
130 53 0 0
131 52 0 0
132 51 0 0
133 50 0 0
134 49 0 0
135 48 0 0
136 47 0 0
137 46 0 0
138 45 0 0
139 44 0 0
140 43 0 0
141 42 0 0
142 41 0 0
143 40 0 0
144 39 0 0
145 38 0 0
146 37 0 0
147 36 0 0
148 35 0 0
149 34 0 0
150 33 0 0
151 32 0 0
152 31 0 0
153 30 0 0
154 29 0 0
155 28 0 0
156 27 0 0
157 26 0 0
158 25 0 0
159 24 0 0
160 23 0 0
161 22 0 0
162 21 0 0
163 19.0087 0 0
164 17.8699 0 0
165 16.5619 0 0
166 15.0593 0 0
167 13.3333 0 0
168 11.3507 0 0
169 9.07323 0 0
170 6.45711 0 0
171 3.45198 0 0
172 0 -3.33333 0
173 0 -6.66667 0
174 76.25 1.35 0
175 74.2 1.75 0
176 72 2.15 0
177 69.5 2.45 0
178 66.95 2.95 0
179 64.5 3.45 0
180 62.05 3.7 0
181 59.2 4.05 0
182 56.3 5.05 0
183 53.6 6.4 0
184 51.3 7.65 0
185 48.7 9.15 0
186 45.4333 10 0
187 43.8667 10 0
188 40.45 9.25 0
189 36.8 7.65 0
190 33.45 6.25 0
191 30.2667 4.96667 0
192 28.6333 4.23333 0
193 25.7333 2.96667 0
194 24.4667 2.43333 0
195 21.8797 1.11606 0
196 20.8317 0.49385 0
256 79.3396 0.4403 0
257 90.1499 -14.7579 0
258 9.85014 -14.6983 0
259 70 -14.4284 0
260 30 -14.4284 0
261 50 -14.4284 0
262 61.2639 -14.0545 0
263 41.2639 -14.0545 0
264 81.2639 -14.0545 0
265 21.2639 -14.0545 0
266 17.3194 -15.9294 0
267 77.3194 -15.9294 0
268 37.3194 -15.9294 0
269 57.3194 -15.9294 0
270 5.44867 -14.0006 0
271 94.5513 -14.0105 0
272 26 -13.4641 0
273 46 -13.4641 0
274 66 -13.4641 0
275 86 -13.4641 0
276 14 -13.1065 0
277 34.1151 -13.2889 0
278 54.1151 -13.2889 0
279 74.1151 -13.2889 0
280 83.736 -16.9239 0
281 23.736 -16.9239 0
282 63.736 -16.9239 0
283 43.736 -16.9239 0
284 2.41133 -16.7659 0
285 97.5887 -16.7666 0
286 97.8644 -12.4673 0
287 2.13557 -12.4666 0
288 77.8672 -12.5721 0
289 17.8554 -12.5534 0
290 37.8672 -12.5721 0
291 57.8672 -12.5721 0
292 53.5 -0.887082 0
293 57.4183 -1.05165 0
294 61.4626 -1.0036 0
295 49.4945 -0.777305 0
296 65.4044 -1.18629 0
297 45.5 -0.866025 0
298 33.4626 -1.0036 0
299 41.5 -0.925274 0
300 29.5 -0.886867 0
301 37.4044 -1.18629 0
302 25.4626 -1.0036 0
303 69.4713 -0.946804 0
304 21.4993 -0.869517 0
305 73.5 -0.907392 0
306 77.4867 -0.774521 0
307 80.4105 -0.741467 0
308 82.7841 -1.05949 0
309 85.8037 -1.39801 0
310 18.508 -1.02694 0
311 15.8106 -1.21703 0
312 27.5 -0.866025 0
313 31.5257 -0.996043 0
314 23.4 -0.73782 0
315 35.5 -0.866025 0
316 47.5642 -1.02962 0
317 39.3821 -1.02777 0
318 43.5 -0.907392 0
319 55.6064 -1.04133 0
320 51.4458 -1.05112 0
321 63.5 -0.866025 0
322 59.4 -0.736298 0
323 67.5886 -1.16547 0
324 75.5334 -1.04002 0
325 71.4 -0.69746 0
326 12.342 -1.60589 0
327 89.788 -1.84468 0
328 7.7644 -2.08945 0
329 94.84 -2.68591 0
330 21.887 -7.34107 0
331 29.4844 -6.74481 0
332 58.0018 -6.54718 0
333 50.3809 -6.76162 0
334 37.6191 -6.76162 0
335 65.6191 -6.76162 0
336 78.379 -6.75311 0
337 3.28507 -4.76471 0
338 86.3623 -7.14958 0
339 13.8126 -6.34186 0
340 62.4798 -6.81443 0
341 64.0335 -4.06009 0
342 61.5259 -4.28826 0
343 66.7728 -3.90327 0
344 68.4591 -6.1877 0
345 69.2315 -3.44882 0
346 70.9288 -5.39682 0
347 53.5252 -6.80732 0
348 51.9665 -4.06009 0
349 54.461 -4.30282 0
350 49.2809 -3.90764 0
351 47.5499 -6.18843 0
352 46.7685 -3.44882 0
353 45.0538 -5.38327 0
354 34.4583 -6.78398 0
355 36.0335 -4.06009 0
356 33.4375 -4.21607 0
357 38.7728 -3.90327 0
358 40.5185 -5.84544 0
359 41.1819 -3.30209 0
360 26.4573 -6.81163 0
361 28.0335 -4.06009 0
362 25.5222 -4.28779 0
363 44.4788 -3.00016 0
364 81.4916 -6.99404 0
365 79.9691 -4.01737 0
366 77.2676 -3.88322 0
367 75.4788 -5.84674 0
368 82.7639 -4.37537 0
369 74.8163 -3.29124 0
370 17.2471 -6.81561 0
371 19.7004 -3.7749 0
372 71.1834 -3.19134 0
373 15.7112 -4.24272 0
374 94.196 -6.57179 0
375 90.1172 -6.54674 0
376 10.0967 -6.82366 0
377 6.2395 -6.71711 0
378 78.744 -2.34738 0
379 62.467 -2.91899 0
380 34.4493 -2.90456 0
381 26.4663 -2.9189 0
382 30.3948 -4.13844 0
383 81.627 -2.53264 0
384 50.7482 -2.41413 0
385 97.1386 -5 0
386 92.2939 -4.2995 0
387 60.9008 -2.37981 0
388 59.2758 -3.87387 0
389 32.822 -2.41184 0
390 24.9002 -2.38082 0
391 23.3828 -3.65563 0
392 53.4276 -2.74393 0
393 5.01023 -2.25611 0
394 42.8296 -4.45657 0
395 10.2132 -1.88368 0
396 11.5086 -4.02338 0
397 73.061 -4.53 0
398 87.9609 -4.24433 0
399 65.331 -2.72212 0
400 37.331 -2.72212 0
401 87.658 -1.57732 0
402 29.4304 -2.69928 0
403 14.2233 -1.40928 0
404 84.1378 -1.33011 0
405 84.7211 -2.90757 0
406 17.2294 -1.08385 0
407 18.1568 -2.32795 0
408 19.807 -1.91235 0
409 21.5031 -2.78004 0
410 55.018 -2.36769 0
411 56.679 -3.84859 0
412 58.0097 -2.61511 0
413 48.1723 -2.34589 0
414 76.0918 -2.21002 0
415 19.5647 -0.760061 0
416 81.5607 -0.901063 0
417 31.1543 -2.45095 0
418 67.7925 -2.54175 0
419 39.8618 -2.28054 0
420 13.7178 -3.3535 0
421 72.9562 -7.25794 0
422 43.0222 -7.24323 0
423 79.4425 -0.983354 0
424 80.209 -1.92761 0
425 48.6172 -1.05121 0
426 46.538 -0.972158 0
427 45.7415 -2.00378 0
428 24.5 -0.866025 0
429 28.5 -0.908178 0
430 27.8908 -2.08722 0
431 22.4832 -0.886607 0
432 23.1193 -1.89203 0
433 26.3925 -0.730602 0
434 32.4684 -1.03412 0
435 30.53 -1.03065 0
436 36.3809 -0.801873 0
437 38.5 -1.89279 0
438 35.8713 -2.04633 0
439 34.3925 -0.730602 0
440 42.5 -0.924161 0
441 42.9272 -2.30013 0
442 38.4889 -0.854401 0
443 40.4573 -1.04965 0
444 44.4 -0.705734 0
445 60.5 -0.866025 0
446 54.5106 -0.946905 0
447 56.5275 -1.96441 0
448 62.3925 -0.730602 0
449 58.4713 -1.05875 0
450 56.5104 -0.811478 0
451 64.3809 -0.801873 0
452 66.5464 -2.01519 0
453 63.9099 -2.0223 0
454 66.5079 -0.873391 0
455 50.3601 -1.06617 0
456 68.5776 -0.8208 0
457 52.4976 -0.885043 0
458 52.181 -2.14893 0
459 72.4332 -0.873375 0
460 72.8563 -2.32912 0
461 76.5909 -1.02752 0
462 78.4613 -0.911564 0
463 74.5 -0.866025 0
464 70.5 -0.866025 0
465 70.0357 -2.03333 0
466 20.5 -0.861015 0
467 41 -2.06434 0
468 75 -2.03904 0
469 70.4688 -7.76849 0
470 45.5252 -7.76299 0
471 17.8686 -4.15222 0
472 2.52852 -2.42755 0
473 60.2567 -6.30475 0
474 23.9549 -5.8355 0
475 9.0515 -4.24197 0
476 55.7334 -6.30118 0
477 59.3045 -1.92959 0
478 86.2864 -3.01365 0
479 15.1471 -2.76247 0
480 83.1011 -2.58082 0
481 97.6209 -2.34307 0
482 92.0702 -1.93502 0
483 31.9506 -5.90593 0
484 21.7121 -4.93112 0
485 49.4455 -1.92706 0
486 77.4404 -1.85904 0
487 6.41913 -4.13194 0
488 85.3196 -4.7808 0
489 2.70491 -7.6297 0
490 19.8161 -6.19166 0
491 97.4669 -7.64769 0
492 29.9229 -1.76137 0
493 68.7829 -1.82616 0
494 90.1764 -3.91421 0
495 46.9569 -1.96005 0
496 53.9223 -1.76961 0
497 16.654 -2.63104 0
498 44.4246 -1.63054 0
499 41.8727 -1.86093 0
500 74 -1.75525 0
501 71.4014 -1.66511 0
502 21.9201 -1.6326 0
503 21.0459 -1.6111 0
504 53.0755 -1.70187 0
505 29.0488 -1.66858 0
506 31.9981 -1.77503 0
507 83.9875 -6.65996 0
508 26.4354 -1.66453 0
509 34.4163 -1.66049 0
510 62.4388 -1.65356 0
511 31.9518 -3.82465 0
512 44.5 0.809063 0
513 48.5 0.832479 0
514 50.3053 7.27018 0
515 41.524 0.980783 0
516 51.4928 0.841088 0
517 44.6534 8.77683 0
518 38.6738 0.81088 0
519 35.4626 0.82719 0
520 53.4603 0.848582 0
521 46.5398 0.916178 0
522 33.4703 0.979467 0
523 31.4329 0.903993 0
524 52.5012 5.62115 0
525 40.1736 7.27512 0
526 55.4835 0.878018 0
527 36.5722 5.8016 0
528 54.9082 4.34709 0
529 57.5155 0.865928 0
530 28.5985 0.873792 0
531 33.2632 4.63536 0
532 60.4178 0.879011 0
533 62.5 0.865025 0
534 64.5 0.839753 0
535 47.3465 8.30239 0
536 26.4311 0.902877 0
537 30.1509 3.18196 0
538 66.555 0.927244 0
539 61.2954 2.74421 0
540 63.7122 2.55728 0
541 58.2282 2.75876 0
542 56.7814 2.86277 0
543 68.5239 0.833795 0
544 51.3086 6.03499 0
545 51.4833 4.96427 0
546 50.4246 5.37135 0
547 50.5661 4.31171 0
548 49.5555 4.75409 0
549 51.5758 3.8555 0
550 49.6844 3.6759 0
551 48.679 4.11443 0
552 48.5478 5.21049 0
553 47.6344 4.54692 0
554 47.8005 3.43468 0
555 46.7356 3.84924 0
556 46.5688 5.01507 0
557 45.6318 4.2809 0
558 45.4539 5.4939 0
559 44.4377 4.69078 0
560 45.846 3.0699 0
561 44.2628 6.0022 0
562 43.2102 5.18596 0
563 43.3996 3.84421 0
564 42.1556 4.32835 0
565 43.0748 6.47311 0
566 42.4061 3.01214 0
567 41.1309 3.46207 0
568 43.6754 2.63915 0
569 40.8759 4.80516 0
570 39.8058 3.91632 0
571 40.1878 2.60767 0
572 38.806 2.80597 0
573 46.4498 6.23481 0
574 38.4401 4.24414 0
575 37.4788 3.31677 0
576 28.4104 2.7611 0
577 72.5333 0.980342 0
578 70.5 0.816642 0
579 59.8186 2.65229 0
580 58.897 1.61796 0
581 34.984 5.07518 0
582 34.3985 3.57535 0
583 32.9937 3.16946 0
584 42.6682 1.74501 0
585 24.5833 0.811632 0
586 34.0668 2.11134 0
587 35.3003 2.59431 0
588 48.4815 7.56314 0
589 41.8449 8.31056 0
590 37.6473 2.05256 0
591 41.408 2.21747 0
592 65.9886 1.9633 0
593 29.4987 1.78232 0
594 38.2739 6.65984 0
595 25.4002 1.65229 0
596 26.925 2.05138 0
597 31.7014 4.04532 0
598 31.708 2.66658 0
599 53.7493 5.00053 0
600 53.8025 3.64564 0
601 54.8114 3.07295 0
602 53.819 2.48174 0
603 52.556 3.06875 0
604 52.8368 1.82561 0
605 51.7569 2.34114 0
606 32.8047 1.91083 0
607 44.6675 3.45694 0
608 44.8895 2.38333 0
609 45.9753 1.87996 0
610 62.5596 2.6766 0
611 52.6114 4.35931 0
612 50.6759 3.23864 0
613 49.796 2.63368 0
614 48.8218 2.99045 0
615 47.9457 2.36056 0
616 54.9134 1.90316 0
617 49.5 0.852776 0
618 48.9376 1.83734 0
619 47.5 0.866025 0
620 73.5722 0.926605 0
621 71.5 0.866025 0
622 50.4988 0.851969 0
623 46.8989 2.72462 0
624 67.2228 1.81988 0
625 39.4647 5.48432 0
626 36.5736 2.45566 0
627 35.9775 3.77089 0
628 36.8598 1.2405 0
629 64.8915 2.38287 0
630 51.0495 1.61959 0
631 43.4447 0.839505 0
632 45.5025 0.842348 0
633 65.5073 0.878399 0
634 61.4129 0.903887 0
635 63.5 0.838807 0
636 47.4985 5.70064 0
637 47.4124 6.92446 0
638 69.504 0.827744 0
639 34.5 0.866025 0
640 40.4489 1.48016 0
641 39.3602 1.69109 0
642 52.4698 0.852514 0
643 27.5 0.866025 0
644 56.5 0.866025 0
645 56.0639 1.84184 0
646 49.4222 5.7974 0
647 32.4328 0.918654 0
648 30.4269 0.892292 0
649 74.5787 0.812212 0
650 23.5733 0.843142 0
651 41.9737 5.63863 0
652 54.5 0.858197 0
653 21.5 0.445934 0
654 48.4254 6.31472 0
655 44.1275 7.44661 0
656 57.2704 1.97664 0
657 45.3049 6.70597 0
658 61.8879 1.80616 0
659 50.0318 1.68982 0
660 59.4275 0.823047 0
661 47.1433 1.7109 0
662 60.6339 1.87597 0
663 67.5741 0.871008 0
664 42.5274 0.71306 0
665 63.0266 1.72649 0
666 29.5048 0.709681 0
667 30.7605 1.9317 0
668 45.9947 8.71354 0
669 43.2724 8.7243 0
670 46.2951 7.44202 0
671 58.4938 0.788138 0
672 37.0775 4.54717 0
673 44.0212 1.65252 0
674 75.5881 0.711295 0
675 39.6638 0.774588 0
676 25.4829 0.67336 0
677 35 1.68393 0
678 49.4531 7.82308 0
679 64.1051 1.64755 0
680 35.9719 1.64742 0
681 37.7876 0.967386 0
682 28 1.71066 0
683 50.2803 6.34747 0
684 49.3829 6.83744 0
685 70.0507 1.5937 0
686 40.86 6.02885 0
687 68.9907 1.65829 0
688 56.0293 3.71906 0
689 41.8353 6.89742 0
690 51.9211 1.49599 0
691 48 1.51806 0
692 40.5273 0.647106 0
693 22.7306 0.771841 0
694 53.9059 1.58346 0
695 76.4631 0.629384 0
696 64.9985 1.54237 0
697 50.6937 2.43686 0
698 31.8728 1.70428 0
699 45.2751 7.81699 0
700 58.0582 1.50266 0
701 37.9657 5.34741 0
702 59.8389 1.56966 0
703 68.1023 1.55659 0
704 70.9787 1.53513 0
705 36.2683 0.732248 0
706 51.045 6.88139 0
707 51.4454 3.03827 0
708 44.9777 1.51344 0
709 55.7199 2.67995 0
710 42.9035 7.59549 0
711 38.4989 1.68262 0
712 36.1168 4.7871 0
713 24.0637 1.56028 0
End Coordinates
Elements
1 30 31 271 1
2 52 53 270 1
3 258 56 276 1
4 259 65 279 1
5 260 59 277 1
6 261 62 278 1
7 64 65 259 1
8 67 68 257 1
9 61 62 261 1
10 55 56 258 1
11 58 59 260 1
12 64 259 274 1
13 61 261 273 1
14 58 260 272 1
15 67 257 275 1
16 55 258 270 1
17 257 68 271 1
18 31 257 271 1
19 258 52 270 1
20 63 262 269 1
21 60 263 268 1
22 57 265 266 1
23 66 264 267 1
24 62 269 278 1
25 59 268 277 1
26 65 267 279 1
27 56 266 276 1
28 64 274 282 1
29 61 273 283 1
30 67 275 280 1
31 58 272 281 1
32 30 271 286 1
33 270 53 287 1
34 262 63 282 1
35 263 60 283 1
36 264 66 280 1
37 265 57 281 1
38 1 29 285 1
39 54 4 284 1
40 68 1 285 1
41 4 55 284 1
42 62 63 269 1
43 59 60 268 1
44 56 57 266 1
45 65 66 267 1
46 285 29 286 1
47 54 284 287 1
48 267 264 288 1
49 266 265 289 1
50 268 263 290 1
51 269 262 291 1
52 38 39 262 1
53 51 52 258 1
54 48 49 265 1
55 47 48 272 1
56 46 47 260 1
57 42 43 273 1
58 41 42 261 1
59 43 44 263 1
60 37 38 274 1
61 31 32 257 1
62 33 34 264 1
63 36 37 259 1
64 32 33 275 1
65 284 270 287 1
66 271 285 286 1
67 66 67 280 1
68 63 64 282 1
69 57 58 281 1
70 60 61 283 1
71 29 2 286 1
72 3 54 287 1
73 50 51 276 1
74 45 46 277 1
75 40 41 278 1
76 35 36 279 1
77 48 265 272 1
78 260 47 272 1
79 261 42 273 1
80 43 263 273 1
81 38 262 274 1
82 259 37 274 1
83 33 264 275 1
84 257 32 275 1
85 55 270 284 1
86 271 68 285 1
87 53 3 287 1
88 2 30 286 1
89 51 258 276 1
90 46 260 277 1
91 41 261 278 1
92 36 259 279 1
93 265 49 289 1
94 263 44 290 1
95 262 39 291 1
96 264 34 288 1
97 34 35 288 1
98 49 50 289 1
99 44 45 290 1
100 39 40 291 1
101 50 276 289 1
102 45 277 290 1
103 40 278 291 1
104 35 279 288 1
105 275 264 280 1
106 272 265 281 1
107 274 262 282 1
108 273 263 283 1
109 276 266 289 1
110 277 268 290 1
111 278 269 291 1
112 279 267 288 1
End Elements
MESH "Kratos_Triangle2D3_Mesh_2" dimension 2 ElemType Triangle Nnode 3
Elements
113 340 335 341 3
114 333 347 348 3
115 354 334 355 3
116 360 331 361 3
117 332 388 411 3
118 336 364 365 3
119 359 394 441 3
120 397 369 460 3
121 427 297 498 3
122 460 459 501 3
123 438 315 509 3
124 430 312 508 3
125 453 321 510 3
126 359 441 499 3
127 336 365 366 3
128 376 339 396 3
129 46 354 483 3
130 460 369 500 3
131 372 397 460 3
132 394 363 441 3
133 341 335 343 3
134 333 348 350 3
135 355 334 357 3
136 396 339 420 3
137 384 320 455 3
138 331 46 483 3
139 387 445 477 3
140 390 428 432 3
141 411 388 412 3
142 340 341 342 3
143 348 347 349 3
144 354 355 356 3
145 360 361 362 3
146 366 365 378 3
147 347 40 476 3
148 361 331 382 3
149 42 333 351 3
150 335 37 344 3
151 334 44 358 3
152 35 336 367 3
153 350 348 384 3
154 407 371 408 3
155 375 374 386 3
156 341 343 399 3
157 355 357 400 3
158 48 360 474 3
159 39 340 473 3
160 342 341 379 3
161 356 355 380 3
162 362 361 381 3
163 456 323 493 3
164 374 329 386 3
165 365 364 368 3
166 293 412 449 3
167 40 332 476 3
168 329 374 385 3
169 400 301 438 3
170 399 296 453 3
171 348 349 392 3
172 330 48 474 3
173 332 39 473 3
174 383 308 416 3
175 38 335 340 3
176 333 41 347 3
177 45 334 354 3
178 47 331 360 3
179 51 339 376 3
180 378 423 462 3
181 31 374 375 3
182 365 368 383 3
183 35 367 421 3
184 358 44 422 3
185 317 419 443 3
186 410 319 446 3
187 336 34 364 3
188 409 391 432 3
189 339 370 373 3
190 363 352 427 3
191 387 294 445 3
192 389 298 434 3
193 390 302 428 3
194 339 50 370 3
195 339 373 420 3
196 393 337 487 3
197 367 366 369 3
198 38 37 335 3
199 35 34 336 3
200 40 39 332 3
201 42 41 333 3
202 45 44 334 3
203 47 46 331 3
204 49 48 330 3
205 343 344 345 3
206 357 358 359 3
207 351 350 352 3
208 361 382 402 3
209 369 366 414 3
210 352 350 413 3
211 383 416 424 3
212 343 345 418 3
213 357 359 419 3
214 353 352 363 3
215 372 460 501 3
216 320 384 458 3
217 316 413 425 3
218 324 414 461 3
219 409 432 502 3
220 412 293 447 3
221 42 351 470 3
222 344 37 469 3
223 338 32 375 3
224 398 478 488 3
225 33 32 338 3
226 417 313 435 3
227 49 330 490 3
228 363 427 498 3
229 337 377 487 3
230 51 50 339 3
231 380 438 509 3
232 381 430 508 3
233 379 453 510 3
234 52 376 377 3
235 375 386 494 3
236 345 372 465 3
237 367 369 397 3
238 398 327 401 3
239 359 358 394 3
240 39 38 340 3
241 46 45 354 3
242 41 40 347 3
243 48 47 360 3
244 296 399 452 3
245 301 400 437 3
246 345 346 372 3
247 50 49 370 3
248 52 51 376 3
249 370 49 490 3
250 34 33 364 3
251 338 375 398 3
252 388 387 477 3
253 377 337 489 3
254 391 390 432 3
255 377 376 475 3
256 379 341 453 3
257 380 355 438 3
258 381 361 430 3
259 423 378 424 3
260 462 306 486 3
261 31 30 374 3
262 449 412 477 3
263 53 52 377 3
264 171 8 472 3
265 323 418 493 3
266 32 31 375 3
267 371 407 471 3
268 455 295 485 3
269 319 410 447 3
270 410 446 496 3
271 294 387 510 3
272 298 389 509 3
273 302 390 508 3
274 348 392 458 3
275 384 455 485 3
276 364 33 507 3
277 365 383 424 3
278 172 173 337 3
279 443 419 467 3
280 377 475 487 3
281 332 411 476 3
282 378 365 424 3
283 336 366 367 3
284 384 348 458 3
285 408 371 409 3
286 353 394 422 3
287 333 350 351 3
288 357 334 358 3
289 343 335 344 3
290 397 346 421 3
291 418 323 452 3
292 419 317 437 3
293 33 338 507 3
294 295 425 485 3
295 308 383 480 3
296 95 96 329 3
297 338 398 488 3
298 341 399 453 3
299 355 400 438 3
300 5 95 481 3
301 93 94 385 3
302 413 316 495 3
303 361 402 430 3
304 408 409 503 3
305 351 352 353 3
306 345 344 346 3
307 378 462 486 3
308 337 393 472 3
309 170 171 393 3
310 388 332 473 3
311 36 35 421 3
312 482 327 494 3
313 44 43 422 3
314 53 377 489 3
315 169 170 328 3
316 8 172 472 3
317 414 324 468 3
318 425 413 485 3
319 306 461 486 3
320 371 471 490 3
321 400 357 437 3
322 399 343 452 3
323 389 434 506 3
324 417 435 492 3
325 461 414 486 3
326 97 98 327 3
327 167 168 326 3
328 410 411 447 3
329 373 370 471 3
330 353 363 394 3
331 357 419 437 3
332 343 418 452 3
333 367 397 421 3
334 353 422 470 3
335 394 358 422 3
336 421 346 469 3
337 354 356 483 3
338 342 379 387 3
339 356 380 389 3
340 362 381 390 3
341 169 328 395 3
342 420 373 479 3
343 391 409 484 3
344 168 169 395 3
345 411 412 447 3
346 3 53 489 3
347 386 329 482 3
348 415 408 466 3
349 402 417 492 3
350 385 374 491 3
351 98 99 401 3
352 30 2 491 3
353 99 100 309 3
354 329 96 482 3
355 471 407 497 3
356 165 166 311 3
357 374 30 491 3
358 101 102 308 3
359 166 167 403 3
360 466 408 503 3
361 94 5 481 3
362 100 101 404 3
363 372 346 397 3
364 441 363 498 3
365 395 328 475 3
366 163 164 310 3
367 349 347 476 3
368 366 378 486 3
369 164 165 406 3
370 465 372 501 3
371 313 417 506 3
372 327 398 494 3
373 478 405 488 3
374 360 362 474 3
375 340 342 473 3
376 467 359 499 3
377 319 447 450 3
378 447 293 450 3
379 369 468 500 3
380 102 103 416 3
381 173 3 489 3
382 404 308 480 3
383 167 326 403 3
384 328 170 393 3
385 412 388 477 3
386 402 382 417 3
387 368 405 480 3
388 2 93 491 3
389 310 408 415 3
390 474 391 484 3
391 373 471 497 3
392 386 482 494 3
393 396 395 475 3
394 96 97 482 3
395 368 364 507 3
396 398 401 478 3
397 342 387 388 3
398 362 390 391 3
399 376 396 475 3
400 329 385 481 3
401 327 98 401 3
402 37 36 469 3
403 43 42 470 3
404 172 337 472 3
405 488 368 507 3
406 310 407 408 3
407 350 384 485 3
408 392 349 410 3
409 6 104 423 3
410 104 105 462 3
411 133 134 295 3
412 134 135 425 3
413 135 136 316 3
414 136 137 426 3
415 159 160 314 3
416 157 158 302 3
417 161 162 304 3
418 153 154 300 3
419 155 156 312 3
420 158 159 428 3
421 152 153 435 3
422 151 152 313 3
423 160 161 431 3
424 150 151 434 3
425 154 155 429 3
426 156 157 433 3
427 149 150 298 3
428 148 149 439 3
429 147 148 315 3
430 146 147 436 3
431 145 146 301 3
432 137 138 297 3
433 141 142 299 3
434 143 144 317 3
435 139 140 318 3
436 144 145 442 3
437 140 141 440 3
438 138 139 444 3
439 142 143 443 3
440 123 124 322 3
441 129 130 292 3
442 120 121 448 3
443 125 126 293 3
444 121 122 294 3
445 127 128 319 3
446 122 123 445 3
447 128 129 446 3
448 119 120 321 3
449 124 125 449 3
450 117 118 296 3
451 118 119 451 3
452 126 127 450 3
453 116 117 454 3
454 115 116 323 3
455 132 133 455 3
456 130 131 457 3
457 114 115 456 3
458 131 132 320 3
459 106 107 461 3
460 113 114 303 3
461 111 112 325 3
462 105 106 306 3
463 107 108 324 3
464 109 110 305 3
465 108 109 463 3
466 112 113 464 3
467 110 111 459 3
468 103 6 307 3
469 471 370 490 3
470 387 379 510 3
471 389 380 509 3
472 390 381 508 3
473 162 7 466 3
474 410 349 411 3
475 296 452 454 3
476 452 323 454 3
477 301 437 442 3
478 437 317 442 3
479 97 327 482 3
480 7 163 415 3
481 403 326 420 3
482 99 309 401 3
483 165 311 406 3
484 326 168 395 3
485 309 100 404 3
486 385 94 481 3
487 405 404 480 3
488 101 308 404 3
489 326 395 396 3
490 409 371 484 3
491 337 173 489 3
492 311 166 403 3
493 393 171 472 3
494 405 368 488 3
495 308 102 416 3
496 413 350 485 3
497 398 375 494 3
498 458 392 504 3
499 299 443 467 3
500 351 353 470 3
501 346 344 469 3
502 414 366 486 3
503 382 331 483 3
504 309 404 405 3
505 310 164 406 3
506 93 385 491 3
507 326 396 420 3
508 324 463 468 3
509 95 329 481 3
510 392 410 496 3
511 103 307 416 3
512 163 310 415 3
513 484 371 490 3
514 303 456 493 3
515 352 413 495 3
516 427 352 495 3
517 345 465 493 3
518 369 414 468 3
519 316 426 495 3
520 328 393 487 3
521 383 368 480 3
522 479 373 497 3
523 342 388 473 3
524 307 6 423 3
525 105 306 462 3
526 295 134 425 3
527 135 316 425 3
528 316 136 426 3
529 133 295 455 3
530 300 154 429 3
531 314 160 431 3
532 153 300 435 3
533 302 158 428 3
534 159 314 428 3
535 312 156 433 3
536 157 302 433 3
537 161 304 431 3
538 313 152 435 3
539 155 312 429 3
540 298 150 434 3
541 151 313 434 3
542 149 298 439 3
543 137 297 426 3
544 315 148 439 3
545 147 315 436 3
546 301 146 436 3
547 318 140 440 3
548 317 144 442 3
549 299 142 443 3
550 297 138 444 3
551 145 301 442 3
552 139 318 444 3
553 141 299 440 3
554 143 317 443 3
555 294 122 445 3
556 293 126 450 3
557 121 294 448 3
558 322 124 449 3
559 129 292 446 3
560 319 128 446 3
561 296 118 451 3
562 123 322 445 3
563 321 120 448 3
564 125 293 449 3
565 127 319 450 3
566 119 321 451 3
567 292 130 457 3
568 117 296 454 3
569 323 116 454 3
570 115 323 456 3
571 320 132 455 3
572 131 320 457 3
573 303 114 456 3
574 324 108 463 3
575 107 324 461 3
576 305 110 459 3
577 325 112 464 3
578 306 106 461 3
579 113 303 464 3
580 111 325 459 3
581 109 305 463 3
582 362 391 474 3
583 423 104 462 3
584 411 349 476 3
585 417 389 506 3
586 310 406 407 3
587 304 162 466 3
588 422 43 470 3
589 36 421 469 3
590 311 403 479 3
591 7 415 466 3
592 330 474 484 3
593 418 345 493 3
594 429 312 430 3
595 426 297 427 3
596 436 315 438 3
597 318 440 441 3
598 451 321 453 3
599 457 320 458 3
600 464 303 465 3
601 305 459 460 3
602 314 431 432 3
603 419 359 467 3
604 465 303 493 3
605 322 449 477 3
606 403 420 479 3
607 307 423 424 3
608 475 328 487 3
609 426 427 495 3
610 483 356 511 3
611 401 309 478 3
612 382 483 511 3
613 430 402 505 3
614 309 405 478 3
615 311 479 497 3
616 446 292 496 3
617 435 300 492 3
618 389 417 511 3
619 330 484 490 3
620 299 467 499 3
621 356 389 511 3
622 406 311 497 3
623 468 463 500 3
624 434 313 506 3
625 433 302 508 3
626 439 298 509 3
627 448 294 510 3
628 444 318 498 3
629 440 299 499 3
630 463 305 500 3
631 325 464 501 3
632 407 406 497 3
633 431 304 502 3
634 318 441 498 3
635 441 440 499 3
636 305 460 500 3
637 464 465 501 3
638 457 458 504 3
639 429 430 505 3
640 432 431 502 3
641 292 457 504 3
642 300 429 505 3
643 304 466 503 3
644 417 382 511 3
645 496 292 504 3
646 492 300 505 3
647 338 488 507 3
648 502 304 503 3
649 409 502 503 3
650 392 496 504 3
651 402 492 505 3
652 296 451 453 3
653 297 444 498 3
654 301 436 438 3
655 416 307 424 3
656 312 433 508 3
657 428 314 432 3
658 315 439 509 3
659 321 448 510 3
660 445 322 477 3
661 459 325 501 3
End Elements
MESH "Kratos_Triangle2D3_Mesh_4" dimension 2 ElemType Triangle Nnode 3
Elements
662 17 688 542 5
663 536 596 595 5
664 105 9 106 5
665 176 577 11 5
666 582 627 581 5
667 658 662 634 5
668 595 596 193 5
669 545 611 524 5
670 182 688 17 5
671 531 582 581 5
672 531 581 190 5
673 185 678 20 5
674 522 639 586 5
675 176 621 577 5
676 577 620 11 5
677 537 598 597 5
678 627 712 581 5
679 16 579 539 5
680 541 580 579 5
681 593 682 530 5
682 587 627 582 5
683 584 591 515 5
684 594 625 525 5
685 537 597 191 5
686 515 664 584 5
687 549 707 603 5
688 615 618 614 5
689 609 632 521 5
690 603 611 549 5
691 634 662 532 5
692 549 611 545 5
693 614 618 613 5
694 524 611 599 5
695 586 606 522 5
696 576 593 537 5
697 21 535 185 5
698 592 633 538 5
699 19 524 183 5
700 538 624 592 5
701 535 588 185 5
702 571 591 567 5
703 181 579 16 5
704 195 693 27 5
705 26 576 192 5
706 568 608 607 5
707 535 637 588 5
708 190 581 24 5
709 19 544 524 5
710 539 662 658 5
711 644 656 645 5
712 609 708 632 5
713 192 576 537 5
714 579 662 539 5
715 531 583 582 5
716 26 596 576 5
717 599 600 528 5
718 541 579 181 5
719 193 596 26 5
720 161 653 162 5
721 23 594 525 5
722 529 656 644 5
723 18 599 528 5
724 536 643 596 5
725 11 620 175 5
726 631 673 584 5
727 24 581 527 5
728 559 607 557 5
729 557 607 560 5
730 583 586 582 5
731 568 673 608 5
732 188 589 22 5
733 24 527 189 5
734 639 677 586 5
735 572 641 571 5
736 571 640 591 5
737 21 668 535 5
738 645 656 542 5
739 595 713 585 5
740 530 666 593 5
741 17 542 541 5
742 176 704 621 5
743 625 686 525 5
744 525 589 188 5
745 191 597 25 5
746 520 694 604 5
747 576 682 593 5
748 600 602 601 5
749 17 541 181 5
750 566 584 568 5
751 603 604 602 5
752 566 568 563 5
753 572 711 641 5
754 592 696 633 5
755 584 673 568 5
756 600 603 602 5
757 14 592 178 5
758 575 590 572 5
759 192 537 191 5
760 15 610 540 5
761 607 608 560 5
762 600 601 528 5
763 560 623 555 5
764 608 609 560 5
765 563 607 559 5
766 603 605 604 5
767 586 587 582 5
768 9 695 106 5
769 591 640 515 5
770 570 571 567 5
771 592 624 178 5
772 626 628 590 5
773 598 606 583 5
774 14 629 592 5
775 599 611 600 5
776 609 623 560 5
777 544 546 545 5
778 603 707 605 5
779 23 525 188 5
780 567 591 566 5
781 25 531 190 5
782 544 545 524 5
783 521 661 609 5
784 542 709 645 5
785 537 667 598 5
786 583 606 586 5
787 604 642 520 5
788 180 610 15 5
789 183 599 18 5
790 18 528 182 5
791 539 610 180 5
792 527 594 189 5
793 564 566 563 5
794 546 547 545 5
795 608 708 609 5
796 189 594 23 5
797 16 539 180 5
798 620 649 175 5
799 570 572 571 5
800 525 689 589 5
801 524 599 183 5
802 568 607 563 5
803 566 591 584 5
804 25 597 531 5
805 15 540 179 5
806 626 627 587 5
807 604 694 602 5
808 588 678 185 5
809 187 517 186 5
810 597 598 583 5
811 618 659 613 5
812 554 615 614 5
813 602 616 601 5
814 575 626 590 5
815 554 614 551 5
816 628 681 590 5
817 146 681 628 5
818 194 713 595 5
819 523 667 648 5
820 628 705 146 5
821 550 613 612 5
822 580 702 579 5
823 546 548 547 5
824 589 669 22 5
825 557 560 555 5
826 550 612 547 5
827 564 567 566 5
828 547 549 545 5
829 547 612 549 5
830 548 550 547 5
831 526 645 616 5
832 553 554 551 5
833 681 711 590 5
834 600 611 603 5
835 555 623 554 5
836 675 692 640 5
837 20 514 184 5
838 540 629 179 5
839 641 675 640 5
840 179 629 14 5
841 562 563 559 5
842 550 614 613 5
843 541 700 580 5
844 528 688 182 5
845 615 691 618 5
846 548 551 550 5
847 195 653 161 5
848 551 614 550 5
849 518 711 681 5
850 194 595 193 5
851 531 597 583 5
852 134 513 135 5
853 131 516 132 5
854 554 623 615 5
855 132 622 133 5
856 109 620 110 5
857 110 577 111 5
858 553 555 554 5
859 133 617 134 5
860 574 575 572 5
861 605 697 630 5
862 542 656 541 5
863 135 619 136 5
864 584 664 631 5
865 523 698 667 5
866 516 622 132 5
867 134 617 513 5
868 136 521 137 5
869 110 620 577 5
870 133 622 617 5
871 513 619 135 5
872 606 647 522 5
873 605 707 697 5
874 137 632 138 5
875 562 564 563 5
876 130 642 131 5
877 617 618 513 5
878 178 624 13 5
879 569 570 567 5
880 111 621 112 5
881 516 630 622 5
882 138 512 139 5
883 136 619 521 5
884 118 534 119 5
885 131 642 516 5
886 119 635 120 5
887 539 658 610 5
888 186 668 21 5
889 122 532 123 5
890 121 634 122 5
891 120 533 121 5
892 129 520 130 5
893 109 649 620 5
894 556 557 555 5
895 546 646 548 5
896 619 661 521 5
897 577 621 111 5
898 139 631 140 5
899 517 669 655 5
900 590 711 572 5
901 117 633 118 5
902 521 632 137 5
903 645 709 616 5
904 552 553 551 5
905 610 665 540 5
906 19 706 544 5
907 108 649 109 5
908 112 578 113 5
909 637 654 588 5
910 147 519 148 5
911 540 679 629 5
912 128 652 129 5
913 548 552 551 5
914 127 526 128 5
915 116 538 117 5
916 148 639 149 5
917 138 632 512 5
918 113 638 114 5
919 553 556 555 5
920 648 667 593 5
921 154 530 155 5
922 141 515 142 5
923 544 683 546 5
924 126 644 127 5
925 149 522 150 5
926 595 676 536 5
927 556 558 557 5
928 556 573 558 5
929 114 543 115 5
930 125 529 126 5
931 558 559 557 5
932 520 642 130 5
933 155 643 156 5
934 570 574 572 5
935 616 652 526 5
936 623 661 615 5
937 593 667 537 5
938 175 649 10 5
939 593 666 648 5
940 571 641 640 5
941 534 635 119 5
942 156 536 157 5
943 150 647 151 5
944 538 663 624 5
945 552 636 553 5
946 144 518 145 5
947 575 627 626 5
948 22 669 187 5
949 512 631 139 5
950 120 635 533 5
951 122 634 532 5
952 533 634 121 5
953 585 676 595 5
954 118 633 534 5
955 617 659 618 5
956 564 569 567 5
957 112 621 578 5
958 151 523 152 5
959 630 659 622 5
960 636 637 573 5
961 158 585 159 5
962 553 636 556 5
963 561 562 559 5
964 152 648 153 5
965 569 625 570 5
966 129 652 520 5
967 548 646 552 5
968 586 677 587 5
969 123 660 124 5
970 570 625 574 5
971 558 561 559 5
972 616 709 601 5
973 115 663 116 5
974 527 701 594 5
975 643 682 596 5
976 538 633 117 5
977 184 706 19 5
978 556 636 573 5
979 629 696 592 5
980 159 650 160 5
981 526 652 128 5
982 561 565 562 5
983 10 674 174 5
984 578 638 113 5
985 140 664 141 5
986 519 639 148 5
987 622 659 617 5
988 162 653 196 5
989 581 712 527 5
990 562 651 564 5
991 153 666 154 5
992 532 660 123 5
993 561 655 565 5
994 127 644 526 5
995 187 669 517 5
996 149 639 522 5
997 631 664 140 5
998 161 693 195 5
999 517 668 186 5
1000 574 672 575 5
1001 108 674 649 5
1002 114 638 543 5
1003 145 681 146 5
1004 530 643 155 5
1005 656 700 541 5
1006 529 644 126 5
1007 637 670 573 5
1008 636 654 637 5
1009 594 701 625 5
1010 679 696 629 5
1011 646 654 552 5
1012 609 661 623 5
1013 522 647 150 5
1014 618 691 513 5
1015 533 658 634 5
1016 573 657 558 5
1017 116 663 538 5
1018 13 687 177 5
1019 156 643 536 5
1020 12 704 176 5
1021 141 664 515 5
1022 644 645 526 5
1023 561 657 655 5
1024 649 674 10 5
1025 552 654 636 5
1026 598 698 606 5
1027 543 663 115 5
1028 640 692 515 5
1029 146 705 147 5
1030 587 680 626 5
1031 565 651 562 5
1032 160 693 161 5
1033 535 670 637 5
1034 564 651 569 5
1035 151 647 523 5
1036 558 657 561 5
1037 518 675 641 5
1038 124 671 125 5
1039 154 666 530 5
1040 177 685 12 5
1041 669 710 655 5
1042 174 695 9 5
1043 635 665 533 5
1044 523 648 152 5
1045 605 690 604 5
1046 125 671 529 5
1047 673 708 608 5
1048 668 670 535 5
1049 516 690 630 5
1050 626 680 628 5
1051 533 665 658 5
1052 144 675 518 5
1053 625 701 574 5
1054 660 671 124 5
1055 596 682 576 5
1056 648 666 153 5
1057 585 650 159 5
1058 515 692 142 5
1059 674 695 174 5
1060 157 676 158 5
1061 107 674 108 5
1062 143 675 144 5
1063 536 676 157 5
1064 544 706 683 5
1065 646 684 654 5
1066 27 693 650 5
1067 654 684 588 5
1068 630 690 605 5
1069 662 702 532 5
1070 661 691 615 5
1071 20 678 514 5
1072 665 679 540 5
1073 575 672 627 5
1074 158 676 585 5
1075 532 702 660 5
1076 512 673 631 5
1077 630 697 659 5
1078 573 670 657 5
1079 27 713 194 5
1080 601 688 528 5
1081 642 690 516 5
1082 635 679 665 5
1083 107 695 674 5
1084 529 700 656 5
1085 602 694 616 5
1086 658 665 610 5
1087 613 697 612 5
1088 619 691 661 5
1089 142 692 143 5
1090 569 686 625 5
1091 686 689 525 5
1092 534 679 635 5
1093 546 683 646 5
1094 513 691 619 5
1095 143 692 675 5
1096 106 695 107 5
1097 519 677 639 5
1098 13 703 687 5
1099 612 707 549 5
1100 659 697 613 5
1101 668 699 670 5
1102 677 680 587 5
1103 604 690 642 5
1104 697 707 612 5
1105 518 681 145 5
1106 514 706 184 5
1107 641 711 518 5
1108 606 698 647 5
1109 647 698 523 5
1110 543 703 663 5
1111 624 703 13 5
1112 530 682 643 5
1113 512 708 673 5
1114 580 671 660 5
1115 578 685 638 5
1116 667 698 598 5
1117 678 684 514 5
1118 519 680 677 5
1119 534 696 679 5
1120 651 686 569 5
1121 657 699 655 5
1122 638 687 543 5
1123 514 684 683 5
1124 655 699 517 5
1125 565 689 651 5
1126 633 696 534 5
1127 683 684 646 5
1128 652 694 520 5
1129 147 705 519 5
1130 650 693 160 5
1131 574 701 672 5
1132 517 699 668 5
1133 683 706 514 5
1134 579 702 662 5
1135 663 703 624 5
1136 632 708 512 5
1137 565 710 689 5
1138 672 701 527 5
1139 519 705 680 5
1140 651 689 686 5
1141 685 687 638 5
1142 621 704 578 5
1143 578 704 685 5
1144 689 710 589 5
1145 685 704 12 5
1146 588 684 678 5
1147 616 694 652 5
1148 680 705 628 5
1149 671 700 529 5
1150 655 710 565 5
1151 670 699 657 5
1152 660 702 580 5
1153 589 710 669 5
1154 672 712 627 5
1155 177 687 685 5
1156 585 713 650 5
1157 688 709 542 5
1158 687 703 543 5
1159 580 700 671 5
1160 650 713 27 5
1161 527 712 672 5
1162 601 709 688 5
1163 196 653 195 5
1164 104 6 256 5
1165 196 7 162 5
1166 28 9 105 5
1167 28 105 104 5
1168 28 104 256 5
End Elements
MESH "Kratos_Line2D2_Mesh_6" dimension 2 ElemType Linear Nnode 2
Coordinates
6 80 0 0
7 20 0 0
104 79 0 0
105 78 0 0
106 77 0 0
107 76 0 0
108 75 0 0
109 74 0 0
110 73 0 0
111 72 0 0
112 71 0 0
113 70 0 0
114 69 0 0
115 68 0 0
116 67 0 0
117 66 0 0
118 65 0 0
119 64 0 0
120 63 0 0
121 62 0 0
122 61 0 0
123 60 0 0
124 59 0 0
125 58 0 0
126 57 0 0
127 56 0 0
128 55 0 0
129 54 0 0
130 53 0 0
131 52 0 0
132 51 0 0
133 50 0 0
134 49 0 0
135 48 0 0
136 47 0 0
137 46 0 0
138 45 0 0
139 44 0 0
140 43 0 0
141 42 0 0
142 41 0 0
143 40 0 0
144 39 0 0
145 38 0 0
146 37 0 0
147 36 0 0
148 35 0 0
149 34 0 0
150 33 0 0
151 32 0 0
152 31 0 0
153 30 0 0
154 29 0 0
155 28 0 0
156 27 0 0
157 26 0 0
158 25 0 0
159 24 0 0
160 23 0 0
161 22 0 0
162 21 0 0
End Coordinates
Elements
1169 162 7 7
1170 161 162 7
1171 160 161 7
1172 159 160 7
1173 158 159 7
1174 157 158 7
1175 156 157 7
1176 155 156 7
1177 154 155 7
1178 153 154 7
1179 152 153 7
1180 151 152 7
1181 150 151 7
1182 149 150 7
1183 148 149 7
1184 147 148 7
1185 146 147 7
1186 145 146 7
1187 144 145 7
1188 143 144 7
1189 142 143 7
1190 141 142 7
1191 140 141 7
1192 139 140 7
1193 138 139 7
1194 137 138 7
1195 136 137 7
1196 135 136 7
1197 134 135 7
1198 133 134 7
1199 132 133 7
1200 131 132 7
1201 130 131 7
1202 129 130 7
1203 128 129 7
1204 127 128 7
1205 126 127 7
1206 125 126 7
1207 124 125 7
1208 123 124 7
1209 122 123 7
1210 121 122 7
1211 120 121 7
1212 119 120 7
1213 118 119 7
1214 117 118 7
1215 116 117 7
1216 115 116 7
1217 114 115 7
1218 113 114 7
1219 112 113 7
1220 111 112 7
1221 110 111 7
1222 109 110 7
1223 108 109 7
1224 107 108 7
1225 106 107 7
1226 105 106 7
1227 104 105 7
1228 6 104 7
End Elements
